<svg width="128" height="36" viewBox="0 0 128 36" fill="none" xmlns="http://www.w3.org/2000/svg">
<path d="M45.4759 25.4531V23.6291C45.4119 23.8211 45.2279 24.0851 44.9239 24.4211C44.6279 24.7571 44.2199 25.0611 43.6999 25.3331C43.1879 25.6051 42.5799 25.7411 41.8759 25.7411C40.9559 25.7411 40.1279 25.5211 39.3919 25.0811C38.6559 24.6411 38.0759 24.0291 37.6519 23.2451C37.2279 22.4611 37.0159 21.5571 37.0159 20.5331C37.0159 19.5091 37.2279 18.6051 37.6519 17.8211C38.0759 17.0371 38.6559 16.4251 39.3919 15.9851C40.1279 15.5371 40.9559 15.3131 41.8759 15.3131C42.5639 15.3131 43.1599 15.4331 43.6639 15.6731C44.1679 15.9131 44.5719 16.1891 44.8759 16.5011C45.1879 16.8131 45.3799 17.0851 45.4519 17.3171V15.6011H47.9959V25.4531H45.4759ZM39.5479 20.5331C39.5479 21.1651 39.6879 21.7171 39.9679 22.1891C40.2479 22.6611 40.6119 23.0251 41.0599 23.2811C41.5159 23.5371 42.0039 23.6651 42.5239 23.6651C43.0839 23.6651 43.5799 23.5331 44.0119 23.2691C44.4519 23.0051 44.7959 22.6411 45.0439 22.1771C45.2999 21.7051 45.4279 21.1571 45.4279 20.5331C45.4279 19.9091 45.2999 19.3651 45.0439 18.9011C44.7959 18.4291 44.4519 18.0611 44.0119 17.7971C43.5799 17.5251 43.0839 17.3891 42.5239 17.3891C42.0039 17.3891 41.5159 17.5211 41.0599 17.7851C40.6119 18.0411 40.2479 18.4051 39.9679 18.8771C39.6879 19.3491 39.5479 19.9011 39.5479 20.5331ZM50.5882 25.4531V8.94112H53.1562V17.3171C53.2122 17.0771 53.4002 16.8011 53.7202 16.4891C54.0402 16.1771 54.4682 15.9051 55.0042 15.6731C55.5402 15.4331 56.1522 15.3131 56.8402 15.3131C57.7682 15.3131 58.5882 15.5371 59.3002 15.9851C60.0122 16.4251 60.5682 17.0371 60.9682 17.8211C61.3762 18.6051 61.5802 19.5091 61.5802 20.5331C61.5802 21.5571 61.3762 22.4611 60.9682 23.2451C60.5682 24.0291 60.0122 24.6411 59.3002 25.0811C58.5882 25.5211 57.7682 25.7411 56.8402 25.7411C56.2082 25.7411 55.6282 25.6251 55.1002 25.3931C54.5802 25.1531 54.1482 24.8691 53.8042 24.5411C53.4602 24.2131 53.2322 23.9091 53.1202 23.6291V25.4531H50.5882ZM59.0482 20.5331C59.0482 19.9011 58.9162 19.3491 58.6522 18.8771C58.3882 18.4051 58.0402 18.0411 57.6082 17.7851C57.1762 17.5211 56.7002 17.3891 56.1802 17.3891C55.6202 17.3891 55.1122 17.5251 54.6562 17.7971C54.2002 18.0611 53.8362 18.4291 53.5642 18.9011C53.2922 19.3651 53.1562 19.9091 53.1562 20.5331C53.1562 21.1571 53.2922 21.7051 53.5642 22.1771C53.8362 22.6411 54.2002 23.0051 54.6562 23.2691C55.1122 23.5331 55.6202 23.6651 56.1802 23.6651C56.7002 23.6651 57.1762 23.5371 57.6082 23.2811C58.0402 23.0251 58.3882 22.6611 58.6522 22.1891C58.9162 21.7171 59.0482 21.1651 59.0482 20.5331ZM67.3686 15.3131C67.9206 15.3131 68.4326 15.3651 68.9046 15.4691C69.3766 15.5731 69.7806 15.6971 70.1166 15.8411C70.4526 15.9851 70.6846 16.1051 70.8126 16.2011L69.8766 17.7851C69.7166 17.6491 69.4286 17.4931 69.0126 17.3171C68.6046 17.1411 68.1446 17.0531 67.6326 17.0531C67.1206 17.0531 66.6886 17.1451 66.3366 17.3291C65.9846 17.5131 65.8086 17.7891 65.8086 18.1571C65.8086 18.5171 65.9926 18.8051 66.3606 19.0211C66.7366 19.2371 67.2446 19.4171 67.8846 19.5611C68.4126 19.6811 68.9166 19.8491 69.3966 20.0651C69.8766 20.2731 70.2686 20.5731 70.5726 20.9651C70.8846 21.3491 71.0406 21.8651 71.0406 22.5131C71.0406 23.1291 70.9086 23.6451 70.6446 24.0611C70.3886 24.4691 70.0446 24.7971 69.6126 25.0451C69.1806 25.2931 68.7006 25.4691 68.1726 25.5731C67.6526 25.6851 67.1286 25.7411 66.6006 25.7411C65.9526 25.7411 65.3726 25.6771 64.8606 25.5491C64.3566 25.4211 63.9366 25.2731 63.6006 25.1051C63.2646 24.9291 63.0246 24.7811 62.8806 24.6611L63.8166 22.8851C64.0246 23.0851 64.3646 23.2971 64.8366 23.5211C65.3086 23.7371 65.8366 23.8451 66.4206 23.8451C67.0446 23.8451 67.5446 23.7251 67.9206 23.4851C68.2966 23.2451 68.4846 22.9251 68.4846 22.5251C68.4846 22.2291 68.3926 21.9891 68.2086 21.8051C68.0326 21.6211 67.7886 21.4731 67.4766 21.3611C67.1646 21.2491 66.8166 21.1491 66.4326 21.0611C66.0726 20.9731 65.7086 20.8611 65.3406 20.7251C64.9806 20.5811 64.6486 20.3971 64.3446 20.1731C64.0406 19.9411 63.7966 19.6531 63.6126 19.3091C63.4286 18.9651 63.3366 18.5611 63.3366 18.0971C63.3366 17.5051 63.5246 17.0011 63.9006 16.5851C64.2766 16.1691 64.7726 15.8531 65.3886 15.6371C66.0046 15.4211 66.6646 15.3131 67.3686 15.3131ZM72.3197 15.6011H74.1677V11.5571H76.7117V15.6011H79.1477V17.7611H76.7117V21.9731C76.7117 22.5011 76.7997 22.8971 76.9757 23.1611C77.1597 23.4251 77.4197 23.5571 77.7557 23.5571C78.0357 23.5571 78.2557 23.5051 78.4157 23.4011C78.5837 23.2971 78.6837 23.2251 78.7157 23.1851L79.6637 25.0451C79.6157 25.0931 79.4757 25.1731 79.2437 25.2851C79.0117 25.3971 78.7117 25.5011 78.3437 25.5971C77.9757 25.6931 77.5557 25.7411 77.0837 25.7411C76.2517 25.7411 75.5557 25.4931 74.9957 24.9971C74.4437 24.5011 74.1677 23.7251 74.1677 22.6691V17.7611H72.3197V15.6011ZM83.7754 25.4531H81.2194V15.6011H83.7754V17.2451H83.7154C83.7714 17.0451 83.9234 16.7971 84.1714 16.5011C84.4274 16.1971 84.7794 15.9251 85.2274 15.6851C85.6754 15.4371 86.2154 15.3131 86.8474 15.3131C87.3034 15.3131 87.7114 15.3771 88.0714 15.5051C88.4314 15.6331 88.6874 15.7611 88.8394 15.8891L87.8074 18.0011C87.7034 17.8731 87.5074 17.7491 87.2194 17.6291C86.9394 17.5011 86.5914 17.4371 86.1754 17.4371C85.6554 17.4371 85.2154 17.5891 84.8554 17.8931C84.5034 18.1971 84.2354 18.5611 84.0514 18.9851C83.8674 19.4091 83.7754 19.8051 83.7754 20.1731V25.4531ZM97.6712 25.4531V23.6291C97.6072 23.8211 97.4232 24.0851 97.1192 24.4211C96.8232 24.7571 96.4152 25.0611 95.8952 25.3331C95.3832 25.6051 94.7752 25.7411 94.0712 25.7411C93.1512 25.7411 92.3232 25.5211 91.5872 25.0811C90.8512 24.6411 90.2712 24.0291 89.8472 23.2451C89.4232 22.4611 89.2112 21.5571 89.2112 20.5331C89.2112 19.5091 89.4232 18.6051 89.8472 17.8211C90.2712 17.0371 90.8512 16.4251 91.5872 15.9851C92.3232 15.5371 93.1512 15.3131 94.0712 15.3131C94.7592 15.3131 95.3552 15.4331 95.8592 15.6731C96.3632 15.9131 96.7672 16.1891 97.0712 16.5011C97.3832 16.8131 97.5752 17.0851 97.6472 17.3171V15.6011H100.191V25.4531H97.6712ZM91.7432 20.5331C91.7432 21.1651 91.8832 21.7171 92.1632 22.1891C92.4432 22.6611 92.8072 23.0251 93.2552 23.2811C93.7112 23.5371 94.1992 23.6651 94.7192 23.6651C95.2792 23.6651 95.7752 23.5331 96.2072 23.2691C96.6472 23.0051 96.9912 22.6411 97.2392 22.1771C97.4952 21.7051 97.6232 21.1571 97.6232 20.5331C97.6232 19.9091 97.4952 19.3651 97.2392 18.9011C96.9912 18.4291 96.6472 18.0611 96.2072 17.7971C95.7752 17.5251 95.2792 17.3891 94.7192 17.3891C94.1992 17.3891 93.7112 17.5211 93.2552 17.7851C92.8072 18.0411 92.4432 18.4051 92.1632 18.8771C91.8832 19.3491 91.7432 19.9011 91.7432 20.5331ZM109.144 20.2211L113.392 25.4531H110.488L107.584 21.8051L104.68 25.4531H101.956L106.192 20.3891L102.388 15.6011H105.304L107.716 18.7451L110.2 15.6011H112.876L109.144 20.2211ZM121.122 15.3131C121.786 15.3131 122.43 15.4491 123.054 15.7211C123.678 15.9931 124.19 16.4291 124.59 17.0291C124.998 17.6211 125.202 18.3931 125.202 19.3451V25.4531H122.622V19.8131C122.622 18.9251 122.41 18.2731 121.986 17.8571C121.57 17.4331 121.03 17.2211 120.366 17.2211C119.926 17.2211 119.506 17.3451 119.106 17.5931C118.706 17.8411 118.378 18.1771 118.122 18.6011C117.874 19.0251 117.75 19.5131 117.75 20.0651V25.4531H115.182V15.6011H117.75V17.2571C117.822 16.9851 118.014 16.7011 118.326 16.4051C118.646 16.1011 119.05 15.8451 119.538 15.6371C120.026 15.4211 120.554 15.3131 121.122 15.3131Z" fill="white"/>
<path d="M22.4088 17.8719L22.5832 17.5671C22.4808 17.6006 22.3784 17.6314 22.276 17.665L22.4088 17.8747V17.8719Z" fill="#0CBFE7"/>
<path d="M0.439697 35.0852H0.642142C0.594998 35.0488 0.550626 35.0152 0.506255 34.9787L0.439697 35.0852Z" fill="white"/>
<path d="M30.0653 35.0849L29.949 34.9031C29.8715 34.9646 29.794 35.0233 29.7166 35.0849H30.0653Z" fill="white"/>
<path d="M28.7071 35.0852C29.0232 34.8722 29.3366 34.6509 29.6444 34.421L29.4642 34.138C29.0204 34.4687 28.5656 34.7854 28.0997 35.0852H28.7071Z" fill="white"/>
<path d="M0.98608 34.2053L0.808594 34.4911C1.08592 34.6957 1.36601 34.8947 1.65165 35.088H2.25899C1.82359 34.8078 1.39929 34.5135 0.983307 34.2053H0.98608Z" fill="white"/>
<path d="M1.47143 33.415L1.29395 33.7008C2.00666 34.1997 2.74711 34.6621 3.51252 35.0852H4.22246C3.2657 34.5892 2.34777 34.0315 1.47143 33.415Z" fill="white"/>
<path d="M26.8463 35.0852C27.6422 34.648 28.4076 34.1632 29.1481 33.642L28.9678 33.3589C28.0665 33.9951 27.1208 34.5752 26.1364 35.0852H26.8463Z" fill="white"/>
<path d="M24.4864 35.0852C25.9479 34.4743 27.34 33.7232 28.6435 32.8517L28.4632 32.5686C26.9462 33.5859 25.3073 34.4351 23.5768 35.0852H24.4836H24.4864Z" fill="white"/>
<path d="M6.78208 35.0852C5.07655 34.4435 3.46531 33.6111 1.96777 32.6163L1.79028 32.9021C3.07151 33.7541 4.43871 34.4883 5.87246 35.088H6.7793L6.78208 35.0852Z" fill="white"/>
<path d="M22.0376 34.8162C24.209 34.1744 26.2556 33.2356 28.1303 32.0446L27.9501 31.7615C26.0726 32.9525 24.0232 33.8886 21.849 34.5219L22.0348 34.8162H22.0376Z" fill="white"/>
<path d="M8.48197 34.5135C6.34105 33.8858 4.32214 32.9666 2.47241 31.8008L2.29492 32.0866C4.15021 33.2552 6.16911 34.1772 8.31003 34.8134L8.48197 34.5135Z" fill="white"/>
<path d="M9.04781 33.5327C6.89302 32.9582 4.85748 32.0922 2.98278 30.974L2.8053 31.2599C4.68277 32.3781 6.72108 33.2524 8.8731 33.8325L9.04781 33.5327Z" fill="white"/>
<path d="M21.4247 33.8521C23.6238 33.2636 25.701 32.3752 27.6117 31.229L27.4315 30.946C25.5207 32.0922 23.438 32.9778 21.2361 33.5551L21.4247 33.8521Z" fill="white"/>
<path d="M20.8007 32.8713C23.0276 32.3388 25.1353 31.4981 27.0821 30.3967L26.9018 30.1137C24.955 31.215 22.8418 32.0502 20.6094 32.5714L20.8007 32.8713Z" fill="white"/>
<path d="M9.61915 32.5406C7.45326 32.0222 5.39831 31.2067 3.49865 30.1389L3.32117 30.4248C5.22082 31.4953 7.27578 32.3164 9.44443 32.8433L9.61915 32.5406Z" fill="white"/>
<path d="M10.2015 31.5317C8.02172 31.0665 5.94735 30.3042 4.02551 29.2841L3.84802 29.57C5.76986 30.5901 7.84423 31.3608 10.024 31.8372L10.1987 31.5317H10.2015Z" fill="white"/>
<path d="M20.1657 31.8736C22.4203 31.4 24.5613 30.6097 26.5441 29.5532L26.3639 29.2701C24.381 30.3238 22.2345 31.1085 19.9744 31.5709L20.1657 31.8736Z" fill="white"/>
<path d="M10.7894 30.5116C8.59582 30.1025 6.50481 29.3906 4.56079 28.421L4.3833 28.7068C6.32733 29.6793 8.41833 30.3967 10.6119 30.8171L10.7894 30.5088V30.5116Z" fill="white"/>
<path d="M19.5222 30.8619C21.8074 30.4472 23.9816 29.7073 25.9977 28.6956L25.8175 28.4126C23.7958 29.4215 21.616 30.1529 19.3281 30.5565L19.5222 30.8647V30.8619Z" fill="white"/>
<path d="M18.8677 29.8334C21.1805 29.4775 23.3908 28.7909 25.443 27.8269L25.2627 27.541C23.205 28.5023 20.9892 29.1805 18.6708 29.5224L18.8677 29.8334Z" fill="white"/>
<path d="M11.3884 29.4775C9.18088 29.1244 7.07046 28.4658 5.10424 27.5466L4.92676 27.8325C6.89297 28.7545 9.00339 29.4215 11.2081 29.7886L11.3884 29.4775Z" fill="white"/>
<path d="M11.993 28.4266C9.77167 28.1295 7.64461 27.5242 5.65344 26.6555L5.47595 26.9441C7.46435 27.8185 9.59141 28.4294 11.8128 28.7405L11.993 28.4266Z" fill="white"/>
<path d="M18.2021 28.7881C20.5483 28.4939 22.789 27.8633 24.8828 26.9441L24.6998 26.6583C22.6032 27.5719 20.3541 28.194 18.0024 28.4743L18.2021 28.7881Z" fill="white"/>
<path d="M17.5256 27.7232C19.9022 27.4934 22.1818 26.9189 24.3116 26.0473L24.1286 25.7587C21.9932 26.6246 19.7081 27.1907 17.3231 27.4037L17.5256 27.7232Z" fill="white"/>
<path d="M12.6085 27.3617C10.3733 27.1207 8.22682 26.5686 6.21346 25.7503L6.0332 26.0389C8.04656 26.8628 10.1903 27.4233 12.4227 27.6784L12.6057 27.3617H12.6085Z" fill="white"/>
<path d="M13.2298 26.2827C10.9779 26.1006 8.8148 25.6017 6.77926 24.8367L6.599 25.1281C8.63454 25.9016 10.7949 26.4088 13.044 26.605L13.2298 26.2855V26.2827Z" fill="white"/>
<path d="M16.8378 26.6414C19.2477 26.4761 21.5634 25.9604 23.732 25.1365L23.549 24.8479C21.3748 25.6634 19.0508 26.1706 16.6326 26.3164L16.8378 26.6386V26.6414Z" fill="white"/>
<path d="M16.1361 25.5401C18.5793 25.4448 20.931 24.9852 23.1412 24.2117L22.9554 23.9203C20.7396 24.6853 18.3768 25.1337 15.9253 25.2094L16.1333 25.5373L16.1361 25.5401Z" fill="white"/>
<path d="M13.8621 25.187C11.5964 25.0636 9.41386 24.6209 7.35335 23.9062L7.1731 24.1977C9.23082 24.9207 11.4106 25.3719 13.6735 25.512L13.8621 25.187Z" fill="white"/>
<path d="M14.5055 24.0744C12.2232 24.0099 10.0212 23.626 7.94133 22.9618L7.7583 23.2561C9.83821 23.9287 12.0374 24.3238 14.317 24.4051L14.5055 24.0772V24.0744Z" fill="white"/>
<path d="M15.4234 24.4163C17.9027 24.3911 20.2932 23.9931 22.545 23.2729L22.3592 22.9814C20.0991 23.6961 17.7002 24.0828 15.2126 24.0856L15.4234 24.4191V24.4163Z" fill="white"/>
<path d="M8.53203 22.0034L8.349 22.2976C10.5177 22.9366 12.8111 23.2813 15.1794 23.2813C17.5478 23.2813 19.7913 22.945 21.9405 22.3201L21.752 22.0258C19.661 22.6255 17.4562 22.945 15.1794 22.945C12.9026 22.945 10.6425 22.6143 8.53203 22.0034Z" fill="white"/>
<path d="M9.13372 21.0309L8.95068 21.328C10.9419 21.8576 13.0301 22.1435 15.1821 22.1435C17.3341 22.1435 19.3613 21.8688 21.3248 21.3532L21.1362 21.0561C19.231 21.5466 17.2371 21.81 15.1821 21.81C13.1272 21.81 11.0694 21.541 9.13649 21.0337L9.13372 21.0309Z" fill="white"/>
<path d="M9.74391 20.0445L9.55811 20.3443C11.3635 20.7759 13.2465 21.0057 15.1794 21.0057C17.1124 21.0057 18.9233 20.7871 20.6981 20.3696L20.5068 20.0669C18.7929 20.4592 17.0097 20.6666 15.1794 20.6666C13.3491 20.6666 11.491 20.4508 9.74391 20.0417V20.0445Z" fill="white"/>
<path d="M10.3651 19.0412L10.1765 19.3438C11.7933 19.6857 13.4656 19.8651 15.1794 19.8651C16.8932 19.8651 18.4823 19.6941 20.0603 19.3691L19.8661 19.0636C18.3492 19.3663 16.7823 19.5288 15.1794 19.5288C13.5765 19.5288 11.9209 19.3606 10.3623 19.0412H10.3651Z" fill="white"/>
<path d="M22.276 17.6624C22.3786 17.6316 22.4812 17.5979 22.5838 17.5643L22.8334 17.1299C22.5866 17.214 22.3398 17.2925 22.0902 17.3681L22.2788 17.6624H22.276Z" fill="#0CBFE7"/>
<path d="M19.4142 18.3546L19.2173 18.0463C17.9027 18.2705 16.555 18.391 15.1767 18.391C13.7984 18.391 12.3508 18.2649 10.9919 18.0211L10.8005 18.3293C12.2204 18.59 13.6819 18.7273 15.1767 18.7273C16.6714 18.7273 18.0359 18.5984 19.4114 18.3546H19.4142Z" fill="white"/>
<path d="M23.3909 16.1518L23.6516 15.6978C22.9416 15.9669 22.2151 16.2051 21.4746 16.4069L21.6632 16.7039C22.2483 16.5414 22.8252 16.3564 23.3909 16.1518Z" fill="#0CBFE7"/>
<path d="M18.7569 17.3233L18.56 17.0122C17.4562 17.1691 16.3275 17.2532 15.1794 17.2532C13.6098 17.2532 12.0762 17.0991 10.5925 16.8076L10.8421 17.1972C12.2509 17.4522 13.7013 17.5867 15.1794 17.5867C16.3941 17.5867 17.5894 17.4942 18.7569 17.3205V17.3233Z" fill="white"/>
<path d="M21.0448 15.7287C22.1347 15.4568 23.1968 15.1093 24.2257 14.6946L24.4974 14.2181C23.3271 14.7142 22.1097 15.1205 20.8562 15.4288L21.0476 15.7287H21.0448Z" fill="#0CBFE7"/>
<path d="M18.0913 16.2724L17.8916 15.9585C17.0014 16.0594 16.0974 16.1126 15.1822 16.1126C13.3158 16.1126 11.4994 15.8968 9.755 15.4905L10.0101 15.8912C11.6768 16.2555 13.4073 16.4489 15.1822 16.4489C16.1667 16.4489 17.1373 16.3873 18.0941 16.2724H18.0913Z" fill="white"/>
<path d="M20.1657 14.3499C22.0016 13.9631 23.7654 13.3662 25.4265 12.5871L25.7205 12.0743C23.9179 12.9626 21.9933 13.6324 19.9744 14.0444L20.1685 14.3471L20.1657 14.3499Z" fill="#0CBFE7"/>
<path d="M17.1456 14.787L16.9404 14.4648C16.358 14.5068 15.7728 14.5292 15.1794 14.5292C12.8776 14.5292 10.6507 14.2013 8.54028 13.5904L8.80929 14.0136C10.8393 14.5685 12.9747 14.8655 15.1766 14.8655C15.8394 14.8655 16.4939 14.8375 17.1428 14.7842L17.1456 14.787Z" fill="white"/>
<path d="M19.2698 12.9402C21.9127 12.489 24.4114 11.6063 26.6965 10.3676L27.0182 9.80429C24.5972 11.1887 21.9182 12.164 19.0757 12.632L19.2726 12.9402H19.2698Z" fill="#0CBFE7"/>
<path d="M16.1749 13.2653L15.9669 12.9374C15.7062 12.9458 15.4427 12.9514 15.1793 12.9514C12.4116 12.9514 9.75208 12.475 7.27283 11.6035L7.56124 12.0575C9.96008 12.8533 12.5198 13.2877 15.1765 13.2877C15.5093 13.2877 15.8421 13.2793 16.1721 13.2653H16.1749Z" fill="white"/>
<path d="M27.6062 8.26855H26.9406C24.2811 9.77628 21.311 10.7908 18.155 11.1859L18.3547 11.4998C21.6964 11.0598 24.8274 9.93321 27.6062 8.26855Z" fill="#0CBFE7"/>
<path d="M15.185 11.7071L14.9687 11.368C11.7739 11.34 8.72336 10.6814 5.93628 9.50722L6.24965 10.0005C9.01732 11.1018 12.029 11.7071 15.1794 11.7071C15.1794 11.7071 15.1822 11.7071 15.185 11.7071Z" fill="white"/>
<path d="M17.4146 10.0229C19.8938 9.79589 22.2677 9.19056 24.478 8.26855H23.5683C21.5605 9.02522 19.4279 9.51565 17.2094 9.70341L17.4118 10.0229H17.4146Z" fill="#0CBFE7"/>
<path d="M13.9425 9.75945C10.5703 9.5857 7.37834 8.70853 4.50806 7.27087L4.85194 7.81175C7.70003 9.15973 10.8476 9.96684 14.1616 10.1042L13.9425 9.75945Z" fill="white"/>
<path d="M2.38367 3.93875C5.38152 5.80798 8.80645 7.04106 12.4726 7.45022L12.2397 7.0859C8.47366 6.62069 4.97663 5.27552 1.95105 3.26055L2.38367 3.93875Z" fill="white"/>
<path d="M1.24679 0.659882C4.0311 2.6216 7.23972 4.01162 10.7007 4.66179L10.4511 4.27225C7.32014 3.63889 4.40549 2.3918 1.83471 0.659882H1.24402H1.24679Z" fill="white"/>
<path d="M5.79211 0.659882C6.77106 1.07184 7.78051 1.42215 8.8177 1.7052L8.54869 1.28203C7.91917 1.09987 7.30075 0.892485 6.69341 0.659882H5.79211Z" fill="white"/>
<path d="M30.066 35.0852H22.2095L14.841 23.4943L8.1548 35.0852H0.439705L11.1776 17.724L0.292725 0.659882H8.14925L30.0632 35.0852H30.066ZM27.8946 8.26855H16.297L22.4091 17.8726L27.8973 8.26855H27.8946Z" fill="url(#paint0_radial_301_17)"/>
<defs>
<radialGradient id="paint0_radial_301_17" cx="0" cy="0" r="1" gradientUnits="userSpaceOnUse" gradientTransform="translate(14.533 -1.42646) rotate(89.0758) scale(40.0689 39.6509)">
<stop offset="0.386825" stop-color="white" stop-opacity="0"/>
<stop offset="0.93" stop-color="white"/>
</radialGradient>
</defs>
</svg>
